<?xml version="1.0" encoding="UTF-8"?>
<!DOCTYPE svg PUBLIC "-//W3C//DTD SVG 1.1//EN" "http://www.w3.org/Graphics/SVG/1.1/DTD/svg11.dtd">
<!-- Creator: CorelDRAW 2020 (64-Bit Evaluation Version) -->
<svg xmlns="http://www.w3.org/2000/svg" xml:space="preserve" width="75.6428mm" height="32.5089mm" version="1.1" style="shape-rendering:geometricPrecision; text-rendering:geometricPrecision; image-rendering:optimizeQuality; fill-rule:evenodd; clip-rule:evenodd"
viewBox="0 0 1342.96 577.16"
 xmlns:xlink="http://www.w3.org/1999/xlink"
 xmlns:xodm="http://www.corel.com/coreldraw/odm/2003">
 <defs>
  <style type="text/css">
   <![CDATA[
    .fil0 {fill:#2F3C9A;fill-rule:nonzero}
    .fil1 {fill:#FF6600;fill-rule:nonzero}
   ]]>
  </style>
 </defs>
 <g id="Layer_x0020_1">
  <metadata id="CorelCorpID_0Corel-Layer"/>
  <g id="_2042283726832">
   <path class="fil0" d="M1306.54 395.39c0,11.21 1.2,20.18 3.6,26.9 2.4,6.73 5.36,11.13 8.89,13.21 3.52,2.08 6.96,3.6 10.33,4.56 3.36,0.96 6.24,2.64 8.65,5.04 2.4,2.4 3.6,6.32 3.6,11.77l-24.5 0c-54.44,0 -81.66,-31.38 -81.66,-94.15 0,-10.89 -0.08,-27.62 -0.24,-50.2 -0.16,-22.58 -0.24,-39.79 -0.24,-51.64 0,-11.21 0.08,-30.42 0.24,-57.64 0.16,-27.22 0.24,-46.91 0.24,-59.08 0,-1.92 -0.64,-3.52 -1.92,-4.8 -1.28,-1.28 -2.8,-2.16 -4.56,-2.64 -1.76,-0.48 -3.76,-1.12 -6.01,-1.92 -2.24,-0.8 -4.24,-1.6 -6,-2.4 -1.76,-0.8 -3.28,-2.24 -4.56,-4.32 -1.28,-2.08 -1.92,-4.56 -1.92,-7.45l97.03 0 -0.48 171c0,47.07 -0.16,81.66 -0.48,103.75zm-165.24 0c0,-11.21 -0.08,-32.5 -0.24,-63.89 -0.16,-31.38 -0.24,-52.36 -0.24,-62.93 0,-8.65 -1.6,-16.57 -4.8,-23.78 -3.2,-7.2 -7.2,-12.65 -12.01,-16.33 -4.8,-3.68 -9.77,-5.53 -14.89,-5.53 -11.53,1.6 -20.81,6.96 -27.86,16.09 -7.05,9.13 -9.93,19.45 -8.65,30.98 0,11.21 -0.4,32.26 -1.2,63.16 -0.8,30.9 -1.2,51.64 -1.2,62.2 0,9.61 1.76,18.41 5.28,26.42 3.52,8.01 8.09,14.17 13.69,18.49 5.6,4.32 11.45,6.48 17.53,6.48 8.97,0 16.97,-4.96 24.02,-14.89 7.05,-9.93 10.57,-22.1 10.57,-36.51zm-32.18 -184.45c22.42,0.32 41.95,6.65 58.6,18.97 16.65,12.33 28.82,27.7 36.51,46.11 7.69,18.41 11.53,38.19 11.53,59.32 0,21.14 -3.84,40.67 -11.53,58.6 -7.68,17.93 -19.85,32.9 -36.51,44.91 -16.65,12.01 -36.51,18.01 -59.56,18.01 -24.02,0 -44.59,-5.76 -61.73,-17.29 -17.13,-11.53 -29.7,-26.18 -37.71,-43.95 -8.01,-17.77 -12.01,-37.39 -12.01,-58.84 0,-15.69 2.4,-30.9 7.2,-45.63 4.8,-14.73 11.69,-28.02 20.65,-39.87 8.97,-11.85 20.81,-21.46 35.55,-28.82 14.73,-7.36 31.06,-11.21 49,-11.53zm-245.46 45.63c0,10.89 4.08,20.74 12.25,29.54 8.17,8.8 18.17,16.49 30.02,23.06 11.85,6.57 23.62,13.29 35.31,20.18 11.69,6.88 21.7,15.61 30.02,26.18 8.33,10.57 12.49,22.58 12.49,36.03 0,12.81 -3.12,23.78 -9.37,32.9 -6.24,9.13 -14.57,15.85 -24.98,20.17 -10.41,4.32 -20.81,7.45 -31.22,9.37 -10.41,1.92 -21.54,2.88 -33.38,2.88 -26.58,0 -49.4,-4.8 -68.45,-14.41 -19.05,-9.61 -28.58,-23.22 -28.58,-40.83 -0.32,-10.57 3.12,-19.61 10.33,-27.14 7.2,-7.53 16.09,-11.29 26.66,-11.29 10.25,0 18.89,3.68 25.94,11.05 -3.52,2.24 -6.48,7.28 -8.89,15.13 -2.4,7.85 -3.6,14.81 -3.6,20.89 -0.96,10.57 2.24,19.45 9.61,26.66 7.36,7.2 16.33,10.17 26.9,8.89 9.93,0.64 18.41,-2.48 25.46,-9.37 7.04,-6.88 10.25,-15.29 9.61,-25.22 0,-8.97 -2.88,-16.97 -8.65,-24.02 -5.76,-7.04 -12.97,-12.89 -21.62,-17.53 -8.65,-4.64 -18.01,-9.85 -28.1,-15.61 -10.09,-5.76 -19.45,-11.61 -28.1,-17.53 -8.65,-5.92 -15.85,-14.01 -21.62,-24.26 -5.76,-10.25 -8.65,-21.94 -8.65,-35.07 0,-14.41 5.04,-26.66 15.13,-36.75 10.09,-10.09 22.01,-17.13 35.78,-21.14 13.77,-4 28.5,-6 44.19,-6 15.05,0 28.42,1.52 40.11,4.56 11.69,3.04 20.89,7.21 27.62,12.49 6.73,5.28 11.77,11.05 15.13,17.29 3.36,6.24 5.04,12.57 5.04,18.97 0.64,10.57 -2.64,19.77 -9.85,27.62 -7.2,7.85 -16.09,11.77 -26.66,11.77 -13.13,-0.32 -23.38,-5.92 -30.74,-16.81 11.21,-9.93 16.49,-22.42 15.85,-37.47 0,-7.69 -2.72,-14.33 -8.17,-19.94 -5.44,-5.6 -12.17,-8.57 -20.18,-8.89 -9.6,-0.64 -17.69,2.4 -24.26,9.13 -6.57,6.73 -9.37,14.89 -8.41,24.5zm-172.44 -102.31l0 -0.48c-0.32,-7.04 1.44,-13.53 5.28,-19.45 3.84,-5.92 8.97,-10.41 15.37,-13.45 6.4,-3.04 13.13,-3.92 20.17,-2.64 7.04,1.28 13.13,4.4 18.25,9.37 5.12,4.96 8.41,10.89 9.85,17.77 1.44,6.88 0.88,13.69 -1.68,20.42 -2.56,6.72 -6.81,12.09 -12.73,16.09 -5.92,4 -12.41,6.01 -19.45,6.01 -9.61,0 -17.77,-3.28 -24.5,-9.85 -6.73,-6.56 -10.25,-14.49 -10.57,-23.78zm-26.9 302.62c0,-4.16 1.2,-7.45 3.6,-9.85 2.4,-2.4 5.04,-3.92 7.93,-4.56 2.88,-0.64 5.6,-1.6 8.17,-2.88 2.56,-1.28 4,-3.04 4.32,-5.29 0,-22.74 0.32,-56.76 0.96,-102.07 0.64,-45.31 0.96,-77.09 0.96,-95.35 0,-2.56 -1.36,-4.64 -4.08,-6.25 -2.72,-1.6 -5.6,-2.72 -8.65,-3.36 -3.04,-0.64 -5.84,-2.16 -8.41,-4.56 -2.56,-2.4 -3.84,-5.68 -3.84,-9.85l96.07 0c-0.64,101.83 -0.96,176.29 -0.96,223.36 1.28,1.92 4,3.52 8.17,4.8 4.16,1.28 7.85,3.04 11.05,5.28 3.2,2.24 4.8,5.76 4.8,10.57l-120.09 0zm-191.66 -137.86l-0.48 3.84c0,7.37 0.64,15.29 1.92,23.78 1.28,8.49 3.28,17.29 6,26.42 2.72,9.13 6.8,16.65 12.25,22.58 5.44,5.92 11.85,8.89 19.21,8.89 5.76,0 10.89,-2.16 15.37,-6.48 4.48,-4.32 8.09,-9.69 10.81,-16.09 2.72,-6.41 4.88,-13.69 6.48,-21.86 1.6,-8.17 2.72,-15.53 3.36,-22.1 0.64,-6.57 0.96,-12.73 0.96,-18.49 0,-64.37 -11.53,-96.55 -34.58,-96.55 -7.04,0 -13.29,2.56 -18.73,7.69 -5.44,5.12 -9.53,11.13 -12.25,18.01 -2.72,6.88 -4.96,15.21 -6.73,24.98 -1.76,9.77 -2.8,17.93 -3.12,24.5 -0.32,6.56 -0.48,13.53 -0.48,20.89zm117.2 128.25c14.09,0 26.34,2.12 36.75,6.37 10.41,4.25 18.17,10.13 23.3,17.65 5.12,7.52 7.69,16.18 7.69,25.98 0,9.8 -2.24,18.95 -6.73,27.45 -4.48,8.5 -10.89,15.93 -19.22,22.3 -8.32,6.37 -16.33,11.6 -24.02,15.68 -7.68,4.09 -16.81,8.25 -27.38,12.5 -2.56,1.31 -5.12,1.96 -7.69,1.96 -11.21,0 -20.42,-4.33 -27.62,-12.99 -7.2,-8.66 -9.85,-18.54 -7.93,-29.65 0.64,-2.29 1.92,-3.27 3.84,-2.94 22.42,2.94 44.83,1.96 67.25,-2.94 28.18,-6.21 38.27,-17.32 30.26,-33.33 -2.24,-4.9 -5.68,-8.25 -10.33,-10.05 -4.64,-1.8 -10.33,-1.88 -17.05,-0.25 -6.73,1.64 -12.17,3.19 -16.33,4.66 -4.16,1.47 -9.6,3.68 -16.33,6.62 -1.28,0.65 -2.24,1.14 -2.88,1.47 -3.2,1.31 -9.77,4.41 -19.69,9.31 -9.93,4.9 -18.09,8.74 -24.5,11.52 -6.41,2.78 -14.81,5.47 -25.22,8.09 -10.41,2.61 -20.26,3.92 -29.54,3.92 -21.13,0 -39.55,-5.07 -55.24,-15.2 -15.69,-10.13 -23.54,-24.51 -23.54,-43.13 0,-23.85 18.41,-43.3 55.24,-58.33 -18.25,-7.52 -32.9,-19.69 -43.95,-36.51 -11.05,-16.83 -16.57,-35.21 -16.57,-55.14 0,-13.72 2.56,-26.88 7.69,-39.46 5.12,-12.58 12.57,-24.02 22.33,-34.31 9.77,-10.29 22.58,-18.54 38.43,-24.75 15.85,-6.21 33.54,-9.48 53.08,-9.8 32.98,-1.31 61.32,9.64 85.02,32.84 4.48,-0.32 8.32,-2.45 11.53,-6.37 3.2,-3.92 5.2,-8.74 6,-14.46 0.8,-5.72 0.56,-11.6 -0.72,-17.65 -1.28,-6.05 -4.24,-11.76 -8.89,-17.15 -4.64,-5.39 -10.49,-9.56 -17.53,-12.5 9.29,-13.07 21.93,-19.61 37.95,-19.61 10.89,0 20.01,4.09 27.38,12.25 7.37,8.17 10.89,17.65 10.57,28.43 0,12.74 -4.64,24.43 -13.93,35.05 -9.29,10.62 -23.7,18.22 -43.23,22.79 14.09,18.63 21.13,39.7 21.13,63.23 0,13.4 -2.48,26.22 -7.45,38.48 -4.96,12.25 -12.09,23.28 -21.38,33.09 -9.29,9.8 -21.54,17.65 -36.75,23.53 -15.21,5.88 -32.42,8.82 -51.64,8.82 -12.49,-0.32 -24.82,-1.96 -36.99,-4.9 -14.09,5.55 -21.14,12.91 -21.14,22.06 0,5.23 3.68,9.23 11.05,12.01 7.37,2.78 15.69,4.17 24.98,4.17 11.53,0 28.66,-1.8 51.4,-5.39 22.74,-3.59 38.91,-5.39 48.51,-5.39zm-299.74 -293.01l0 -0.48c-0.32,-7.04 1.44,-13.53 5.29,-19.45 3.84,-5.92 8.97,-10.41 15.37,-13.45 6.4,-3.04 13.13,-3.92 20.17,-2.64 7.04,1.28 13.13,4.4 18.25,9.37 5.12,4.96 8.4,10.89 9.85,17.77 1.44,6.88 0.88,13.69 -1.68,20.42 -2.56,6.72 -6.81,12.09 -12.73,16.09 -5.92,4 -12.41,6.01 -19.45,6.01 -9.61,0 -17.77,-3.28 -24.5,-9.85 -6.73,-6.56 -10.25,-14.49 -10.57,-23.78zm-26.9 302.62c0,-4.16 1.2,-7.45 3.6,-9.85 2.4,-2.4 5.04,-3.92 7.93,-4.56 2.88,-0.64 5.6,-1.6 8.17,-2.88 2.56,-1.28 4,-3.04 4.32,-5.29 0,-22.74 0.32,-56.76 0.96,-102.07 0.64,-45.31 0.96,-77.09 0.96,-95.35 0,-2.56 -1.36,-4.64 -4.08,-6.25 -2.72,-1.6 -5.6,-2.72 -8.65,-3.36 -3.04,-0.64 -5.84,-2.16 -8.41,-4.56 -2.56,-2.4 -3.84,-5.68 -3.84,-9.85l96.07 0c-0.64,101.83 -0.96,176.29 -0.96,223.36 1.28,1.92 4,3.52 8.17,4.8 4.16,1.28 7.85,3.04 11.05,5.28 3.2,2.24 4.8,5.76 4.8,10.57l-120.09 0zm-108.08 -71.57l0 -85.02c0,-30.42 -3.2,-51.64 -9.61,-63.65 -6.41,-12.01 -15.53,-18.01 -27.38,-18.01 -8.32,0 -15.61,3.76 -21.86,11.29 -6.24,7.53 -10.81,16.33 -13.69,26.42 -2.88,10.09 -5.12,21.3 -6.73,33.62 -1.6,12.33 -2.56,22.1 -2.88,29.3 -0.32,7.2 -0.32,12.89 0,17.05 0,5.76 0.16,10.81 0.48,15.13 0.32,4.32 0.96,11.61 1.92,21.86 0.96,10.25 2.48,19.06 4.56,26.42 2.08,7.36 4.72,15.13 7.93,23.3 3.2,8.17 7.36,14.41 12.49,18.73 5.12,4.32 11.05,6.48 17.77,6.48 11.85,0 20.97,-6.32 27.38,-18.97 6.4,-12.65 9.61,-27.3 9.61,-43.95zm71.09 23.54c0.96,8.01 2.72,14.33 5.28,18.97 2.56,4.64 5.44,7.69 8.65,9.13 3.2,1.44 6.32,2.72 9.37,3.84 3.04,1.12 5.6,2.8 7.69,5.04 2.08,2.24 3.12,5.76 3.12,10.57 -0.96,0 -2.4,0 -4.32,0 -7.68,0 -13.69,0 -18.01,0 -4.32,0 -10.25,-0.32 -17.77,-0.96 -7.53,-0.64 -13.61,-1.68 -18.25,-3.12 -4.64,-1.44 -9.61,-3.44 -14.89,-6.01 -5.28,-2.56 -9.53,-5.92 -12.73,-10.09 -3.2,-4.16 -5.45,-8.97 -6.73,-14.41 -5.76,11.21 -14.01,20.09 -24.74,26.66 -10.73,6.57 -22.5,10.01 -35.31,10.33 -22.42,0 -42.03,-6.16 -58.84,-18.49 -16.81,-12.33 -29.14,-27.78 -36.99,-46.35 -7.85,-18.57 -11.77,-38.75 -11.77,-60.52 0,-16.01 2.4,-31.38 7.2,-46.11 4.8,-14.73 11.61,-28.18 20.42,-40.35 8.81,-12.17 20.5,-21.78 35.07,-28.82 14.57,-7.05 30.98,-10.57 49.24,-10.57 15.69,-0.32 30.26,3.68 43.71,12.01 0,-4.8 -0.08,-12.89 -0.24,-24.26 -0.16,-11.37 -0.24,-19.93 -0.24,-25.7l0 -25.46c0,-2.56 -1.28,-4.64 -3.84,-6.24 -2.56,-1.6 -5.45,-2.64 -8.65,-3.12 -3.2,-0.48 -6.08,-1.92 -8.65,-4.32 -2.56,-2.4 -3.84,-5.68 -3.84,-9.85l96.07 0 0 288.21z"/>
   <path class="fil1" d="M845.86 571.23l-18.85 0 -36.56 -62.03 0 62.03 -18.85 0 0 -99.3 18.85 0 36.56 62.17 0 -62.17 18.85 0 0 99.3zm32.67 -30.08c0,5.47 1.25,9.45 3.74,11.94 2.4,2.4 5.95,3.6 10.65,3.6 3.64,0 6.43,-0.77 8.35,-2.3 2.11,-1.44 3.21,-3.5 3.31,-6.19l0.14 -0.43 16.98 0 0 0.72c0,7.1 -2.64,12.81 -7.91,17.13 -5.28,4.32 -12.47,6.47 -21.59,6.47 -9.69,0 -17.32,-2.78 -22.88,-8.35 -5.66,-5.47 -8.49,-13.96 -8.49,-25.47l0 -9.07c0,-11.32 2.73,-19.77 8.2,-25.33 5.47,-5.57 13,-8.35 22.6,-8.35 9.31,0 16.79,2.83 22.45,8.49 5.47,5.66 8.2,14.06 8.2,25.19l0 9.93 -43.75 0 0 2.02zm3.45 -26.77c-2.3,2.4 -3.45,6.43 -3.45,12.09l0 0.43 25.9 0 0 -1.87c0,-9.5 -4.27,-14.25 -12.81,-14.25 -4.32,0 -7.53,1.2 -9.64,3.6zm75.56 34.11c0,5.08 2.45,7.63 7.34,7.63l5.61 0 0 15.11 -8.49 0c-6.81,0 -12.19,-1.97 -16.12,-5.9 -4.03,-3.93 -6.05,-9.16 -6.05,-15.69l0 -40.73 -10.36 0 0 -12.52 10.36 0 0 -14.68 17.7 -6.19 0 20.87 14.39 0 0 12.52 -14.39 0 0 39.58zm39.15 -52.1l11.66 47.49 14.39 -47.49 13.38 0 14.39 47.49 11.66 -47.49 19 0 -22.02 74.84 -15.11 0 -14.68 -48.5 -14.54 48.5 -15.11 0 -21.87 -74.84 18.85 0zm97.58 68.07c-5.47,-5.08 -8.2,-13 -8.2,-23.75l0 -13.96c0,-10.65 2.73,-18.52 8.2,-23.6 5.37,-5.08 12.76,-7.63 22.16,-7.63 9.31,0 16.65,2.54 22.02,7.63 5.37,5.08 8.06,12.95 8.06,23.6l0 13.96c0,10.74 -2.69,18.66 -8.06,23.75 -5.37,5.08 -12.71,7.63 -22.02,7.63 -9.4,0 -16.79,-2.54 -22.16,-7.63zm34.54 -37.42c0,-10.46 -4.13,-15.69 -12.38,-15.69 -8.44,0 -12.66,5.23 -12.66,15.69l0 13.53c0,10.46 4.22,15.69 12.66,15.69 8.25,0 12.38,-5.23 12.38,-15.69l0 -13.53zm49.36 -30.66l0 7.77c1.82,-3.07 4.27,-5.42 7.34,-7.05 2.98,-1.54 6.43,-2.3 10.36,-2.3 2.4,0 4.41,0.19 6.04,0.58l0 16.69c-3.45,-1.05 -6.43,-1.58 -8.92,-1.58 -4.32,0 -7.77,1.34 -10.36,4.03 -2.69,2.69 -4.03,6.62 -4.03,11.8l0 44.9 -17.85 0 0 -74.84 17.41 0zm51.96 52.67l0 22.16 -17.85 0 0 -99.3 17.85 0 0 55.55 24.18 -31.09 21.16 0 -25.62 29.79 27.49 45.05 -21.59 0 -17.7 -31.37 -7.92 9.21zm62.17 16.7c-5.18,-4.22 -7.77,-9.79 -7.77,-16.7l0 -0.58 16.7 0 0 0.29c0,2.69 1.15,4.85 3.45,6.48 2.21,1.63 5.13,2.45 8.78,2.45 3.93,0 7,-0.72 9.21,-2.16 2.21,-1.34 3.31,-3.41 3.31,-6.19 0,-2.21 -0.81,-3.98 -2.45,-5.32 -1.53,-1.25 -4.27,-2.16 -8.2,-2.73l-7.92 -1.3c-7.39,-1.25 -12.9,-3.55 -16.55,-6.91 -3.55,-3.26 -5.32,-8.06 -5.32,-14.39 0,-7.2 2.64,-12.86 7.91,-16.98 5.08,-4.13 11.75,-6.19 20.01,-6.19 5.66,0 10.6,0.91 14.82,2.73 4.22,1.82 7.53,4.41 9.93,7.77 2.3,3.36 3.45,7.1 3.45,11.23l0 0.86 -16.55 0 0 -0.43c0,-2.59 -1.01,-4.61 -3.02,-6.05 -2.21,-1.44 -5.09,-2.16 -8.64,-2.16 -3.74,0 -6.52,0.72 -8.35,2.16 -1.92,1.44 -2.88,3.36 -2.88,5.76 0,2.21 0.77,3.93 2.3,5.18 1.44,1.25 3.84,2.11 7.2,2.59l8.78 1.29c7.48,1.06 13.1,3.36 16.84,6.91 3.74,3.55 5.61,8.44 5.61,14.68 0,7.68 -2.78,13.58 -8.35,17.7 -5.66,4.22 -12.9,6.33 -21.73,6.33 -8.44,0 -15.3,-2.11 -20.58,-6.33z"/>
   <g>
    <path class="fil1" d="M350.51 105.13c-1.87,0 -3.75,-0.53 -5.4,-1.62 -6.44,-4.22 -13.86,-6.33 -21.27,-6.33 -7.42,0 -14.83,2.11 -21.27,6.33 -1.65,1.08 -3.53,1.62 -5.4,1.62 -2.47,0 -4.92,-0.94 -6.78,-2.8l-0.14 -0.14c-4.28,-4.28 -3.61,-11.45 1.44,-14.79 9.71,-6.43 20.93,-9.65 32.15,-9.65 11.22,0 22.44,3.22 32.15,9.65 5.05,3.34 5.72,10.51 1.44,14.79l-0.14 0.14c-1.86,1.86 -4.3,2.8 -6.77,2.8z"/>
    <path class="fil1" d="M378.29 77.35c-2.11,0 -4.24,-0.69 -6,-2.1 -14.13,-11.29 -31.29,-16.93 -48.45,-16.93 -17.16,0 -34.32,5.64 -48.45,16.93 -1.76,1.41 -3.89,2.1 -6,2.1 -2.47,0 -4.94,-0.95 -6.8,-2.82l-0.14 -0.14c-4.06,-4.06 -3.69,-10.74 0.8,-14.32 17.67,-14.13 39.13,-21.19 60.6,-21.19 21.46,0 42.92,7.06 60.6,21.19 4.48,3.58 4.85,10.27 0.8,14.32l-0.14 0.14c-1.87,1.87 -4.33,2.82 -6.8,2.82z"/>
    <path class="fil1" d="M405.88 49.75c-2.21,0 -4.42,-0.76 -6.21,-2.3 -21.78,-18.68 -48.8,-28.01 -75.83,-28.01 -27.03,0 -54.05,9.34 -75.83,28.01 -1.79,1.54 -4.01,2.3 -6.22,2.3 -2.47,0 -4.95,-0.95 -6.82,-2.82l-0.14 -0.14c-3.97,-3.98 -3.69,-10.48 0.57,-14.14 25.4,-21.76 56.91,-32.65 88.43,-32.65 31.51,0 63.03,10.88 88.43,32.65 4.27,3.66 4.55,10.16 0.57,14.14l-0.14 0.14c-1.87,1.87 -4.34,2.82 -6.82,2.82z"/>
   </g>
  </g>
 </g>
</svg>
